<svg width="30" height="41" viewBox="0 0 30 41" fill="none" xmlns="http://www.w3.org/2000/svg">
<path fill-rule="evenodd" clip-rule="evenodd" d="M28.078 0C29.279 0 30.1397 1.15877 29.7928 2.30859L18.1181 41H13.711L14.8892 37.0952C15.0445 36.5806 14.7722 36.159 14.2767 36.1217L14.2044 36.119H6.85923C6.31834 36.119 5.74799 36.5561 5.58532 37.0952L4.4071 41H0L11.7948 1.91062C12.1371 0.776226 13.1821 0 14.367 0C15.568 0 16.4288 1.15877 16.0818 2.30859L15.6002 3.90476C15.4449 4.41939 15.7172 4.84101 16.2127 4.87827L16.285 4.88095H23.6301C24.171 4.88095 24.7414 4.4439 24.9041 3.90476L25.5058 1.91062C25.8481 0.776227 26.8931 0 28.078 0ZM10.8357 22.9405C10.2948 22.9405 9.72449 23.3775 9.56181 23.9167L7.6472 30.2619C7.48452 30.801 7.79112 31.2381 8.332 31.2381H15.6772C16.218 31.2381 16.7884 30.801 16.9511 30.2619L18.8657 23.9167C19.0284 23.3775 18.7218 22.9405 18.1809 22.9405H10.8357ZM14.8122 9.7619C14.2713 9.7619 13.701 10.199 13.5383 10.7381L11.6237 17.0833C11.461 17.6225 11.7676 18.0595 12.3085 18.0595H19.6537C20.1945 18.0595 20.7649 17.6225 20.9276 17.0833L22.8422 10.7381C23.0048 10.199 22.6983 9.7619 22.1574 9.7619H14.8122Z" fill="#010F29"/>
</svg>
